<?xml version="1.0" standalone="no"?>
<!DOCTYPE svg PUBLIC "-//W3C//DTD SVG 20010904//EN"
 "http://www.w3.org/TR/2001/REC-SVG-20010904/DTD/svg10.dtd">
<svg version="1.0" xmlns="http://www.w3.org/2000/svg"
 width="1200.000000pt" height="1200.000000pt" viewBox="0 0 1200.000000 1200.000000"
 preserveAspectRatio="xMidYMid meet">
<metadata>
Created by potrace 1.11, written by Peter Selinger 2001-2013
</metadata>
<g transform="translate(0.000000,1200.000000) scale(0.100000,-0.100000)"
fill="#000000" stroke="none">
<path d="M6589 11286 c-2 -3 -53 -7 -114 -11 -60 -3 -121 -8 -135 -10 -14 -2
-61 -6 -104 -10 -43 -4 -86 -8 -95 -10 -9 -1 -43 -6 -76 -9 -33 -4 -67 -9 -75
-11 -8 -2 -35 -6 -60 -9 -25 -3 -56 -8 -70 -11 -13 -2 -42 -7 -65 -11 -22 -3
-70 -12 -107 -20 -37 -7 -82 -16 -100 -19 -45 -8 -291 -66 -299 -70 -3 -2 -20
-7 -38 -10 -31 -5 -352 -100 -381 -112 -8 -3 -17 -7 -20 -7 -4 -1 -80 -28
-120 -43 -8 -3 -19 -7 -25 -9 -18 -4 -313 -123 -332 -133 -10 -5 -47 -22 -83
-38 -73 -31 -386 -189 -440 -221 -19 -11 -51 -30 -72 -41 -20 -11 -78 -46
-130 -78 -51 -32 -101 -62 -111 -68 -9 -5 -65 -43 -125 -84 -432 -299 -784
-621 -1129 -1034 -254 -303 -537 -761 -714 -1152 -86 -190 -203 -510 -245
-670 -1 -5 -12 -44 -24 -85 -12 -41 -23 -82 -25 -90 -58 -242 -93 -434 -119
-645 -34 -276 -40 -387 -40 -680 0 -215 9 -452 18 -502 2 -10 7 -54 11 -97 4
-43 9 -88 11 -100 2 -12 6 -42 9 -68 40 -344 163 -814 311 -1188 68 -173 63
-162 173 -384 119 -242 221 -411 401 -670 113 -162 310 -394 487 -572 161
-163 263 -256 403 -370 416 -337 921 -629 1417 -820 65 -25 127 -49 138 -54
81 -36 601 -188 735 -214 14 -3 36 -7 50 -10 65 -14 77 -17 100 -21 34 -7 325
-53 375 -59 277 -34 396 -40 760 -40 295 -1 496 6 585 19 14 2 59 7 100 10 41
3 86 8 100 10 14 2 48 6 75 10 101 12 149 19 208 31 12 2 39 6 62 10 22 3 70
12 107 20 37 7 81 16 98 19 16 3 60 12 97 21 38 9 75 17 83 19 8 2 35 8 60 15
25 7 52 13 60 15 40 8 276 81 389 119 847 293 1493 755 1892 1354 101 152 196
335 263 504 51 131 112 332 130 433 3 17 8 41 11 55 12 65 15 78 20 120 3 25
8 52 10 60 18 71 26 496 11 625 -20 176 -36 270 -62 360 -8 28 -14 51 -14 53
0 1 -7 28 -15 60 -56 201 -184 481 -305 666 -187 287 -416 517 -726 730 -62
42 -114 76 -117 76 -4 0 -25 13 -49 29 -24 15 -65 41 -93 56 -27 15 -70 39
-95 54 -52 30 -77 44 -157 87 -134 72 -201 109 -256 140 -32 19 -60 34 -62 34
-15 0 -374 227 -433 275 -233 186 -368 331 -489 525 -102 164 -193 404 -232
610 -12 63 -26 135 -31 159 -9 48 -6 400 3 441 4 14 8 41 11 60 14 110 83 318
147 440 70 134 169 268 279 380 80 80 125 119 245 207 45 33 181 103 260 133
33 12 69 26 80 31 25 10 178 46 225 53 90 14 134 16 250 16 69 0 141 -2 160
-5 19 -2 57 -7 84 -11 82 -10 281 -62 384 -100 254 -95 529 -263 727 -447 60
-56 71 -63 80 -48 16 26 11 491 -9 836 -2 26 -17 41 -116 112 -361 259 -826
505 -1260 667 -69 26 -134 51 -145 56 -71 32 -527 165 -635 186 -14 3 -38 9
-55 14 -32 10 -192 42 -290 60 -33 5 -71 12 -85 15 -14 3 -41 8 -60 10 -19 3
-64 10 -100 15 -89 13 -125 18 -195 25 -33 4 -73 9 -90 11 -16 2 -68 6 -115
10 -47 3 -101 8 -120 11 -42 6 -806 14 -811 9z"/>
</g>
</svg>
