<?xml version="1.0" encoding="utf-8"?>
<!-- Generator: Adobe Illustrator 14.0.0, SVG Export Plug-In . SVG Version: 6.00 Build 43363)  -->
<!DOCTYPE svg PUBLIC "-//W3C//DTD SVG 1.1//EN" "http://www.w3.org/Graphics/SVG/1.1/DTD/svg11.dtd">
<svg version="1.1" id="Layer_1" xmlns="http://www.w3.org/2000/svg" xmlns:xlink="http://www.w3.org/1999/xlink" x="0px" y="0px"
	 width="32px" height="32px" viewBox="0 0 32 32" enable-background="new 0 0 32 32" xml:space="preserve">
<path fill="#666666" d="M8.292,12.217h16.084c0.74,0,1.341-0.6,1.341-1.34c0-0.74-0.601-1.34-1.341-1.34H8.292
	c-0.74,0-1.34,0.601-1.34,1.34C6.952,11.617,7.552,12.217,8.292,12.217z M24.377,14.898H8.292c-0.74,0-1.34,0.601-1.34,1.34
	c0,0.74,0.6,1.342,1.34,1.342h16.084c0.74,0,1.341-0.602,1.341-1.342C25.718,15.499,25.117,14.898,24.377,14.898z M24.377,20.26
	H8.292c-0.74,0-1.34,0.602-1.34,1.341s0.6,1.341,1.34,1.341h16.084c0.74,0,1.341-0.602,1.341-1.341S25.117,20.26,24.377,20.26z"/>
</svg>
