<?xml version="1.0" encoding="utf-8"?>
<!-- Generator: Adobe Illustrator 14.0.0, SVG Export Plug-In . SVG Version: 6.00 Build 43363)  -->
<!DOCTYPE svg PUBLIC "-//W3C//DTD SVG 1.1//EN" "http://www.w3.org/Graphics/SVG/1.1/DTD/svg11.dtd">
<svg version="1.1" id="Layer_1" xmlns="http://www.w3.org/2000/svg" xmlns:xlink="http://www.w3.org/1999/xlink" x="0px" y="0px"
	 width="16px" height="16px" viewBox="0 0 16 16" enable-background="new 0 0 16 16" xml:space="preserve">
<linearGradient id="SVGID_1_" gradientUnits="userSpaceOnUse" x1="235.8936" y1="3.396" x2="235.8306" y2="15.5263" gradientTransform="matrix(-1 0 0 1 243.8633 0)">
	<stop  offset="0" style="stop-color:#F15F22"/>
	<stop  offset="1" style="stop-color:#A03D0D"/>
</linearGradient>
<path fill="url(#SVGID_1_)" d="M14.732,2.063c-2.217-1.661-5.328-2.091-7.955-1.35C3.166,1.734,0.746,4.831,0.958,8.627
	c0.199,3.531,2.633,6.125,6.059,6.839c3.067,0.638,7.825-0.457,8.032-4.272c0.068-1.224-0.463-2.407-1.451-3.141
	c-1.105-0.822-2.457-1.037-2.955-2.502c-0.242-0.719-0.205-1.542,0.24-2.178c0.975-1.393,2.754-1.123,3.852-0.042
	C14.812,3.295,14.73,2.208,14.732,2.063"/>
</svg>
